<svg width="40" height="40" viewBox="0 0 40 40" fill="none" xmlns="http://www.w3.org/2000/svg">
<g id="Frame">
<path id="Vector" d="M27.5 20C27.5 21.9891 26.7098 23.8968 25.3033 25.3033C23.8968 26.7098 21.9891 27.5 20 27.5C18.0109 27.5 16.1032 26.7098 14.6967 25.3033C13.2902 23.8968 12.5 21.9891 12.5 20C12.5 18.0109 13.2902 16.1032 14.6967 14.6967C16.1032 13.2902 18.0109 12.5 20 12.5C21.9891 12.5 23.8968 13.2902 25.3033 14.6967C26.7098 16.1032 27.5 18.0109 27.5 20ZM27.5 20C27.5 22.7617 29.1783 25 31.25 25C33.3217 25 35 22.7617 35 20C35 16.5297 33.7967 13.1667 31.5951 10.4841C29.3935 7.80157 26.3299 5.96534 22.9262 5.28834C19.5226 4.61134 15.9895 5.13546 12.929 6.77138C9.86841 8.40731 7.46978 11.0538 6.14177 14.26C4.81376 17.4662 4.63852 21.0336 5.64593 24.3545C6.65334 27.6754 8.78105 30.5443 11.6665 32.4722C14.552 34.4002 18.0167 35.2681 21.4704 34.9279C24.924 34.5877 28.1528 33.0606 30.6067 30.6067M27.5 20V13.75" stroke="#D7D7D7" stroke-width="2" stroke-linecap="round"/>
</g>
</svg>
