<svg width="414" height="24" viewBox="0 0 414 24" fill="none" xmlns="http://www.w3.org/2000/svg">
<rect width="414" height="24" fill="white"/>
<path d="M375.73 7.0127V17H374.083V8.96777L371.643 9.79492V8.43457L375.532 7.0127H375.73ZM385.861 15.6875V17H379.189V15.8721L382.43 12.3379C382.785 11.9368 383.065 11.5905 383.271 11.2988C383.476 11.0072 383.619 10.7451 383.701 10.5127C383.788 10.2757 383.831 10.0456 383.831 9.82227C383.831 9.50781 383.772 9.2321 383.653 8.99512C383.539 8.75358 383.371 8.56445 383.147 8.42773C382.924 8.28646 382.653 8.21582 382.334 8.21582C381.965 8.21582 381.655 8.29557 381.404 8.45508C381.154 8.61458 380.965 8.83561 380.837 9.11816C380.709 9.39616 380.646 9.71517 380.646 10.0752H378.998C378.998 9.49642 379.13 8.96777 379.395 8.48926C379.659 8.00618 380.042 7.62337 380.543 7.34082C381.044 7.05371 381.648 6.91016 382.354 6.91016C383.02 6.91016 383.585 7.02181 384.05 7.24512C384.515 7.46842 384.868 7.78516 385.109 8.19531C385.355 8.60547 385.479 9.09082 385.479 9.65137C385.479 9.96126 385.428 10.2689 385.328 10.5742C385.228 10.8796 385.084 11.1849 384.897 11.4902C384.715 11.791 384.499 12.0941 384.248 12.3994C383.997 12.7002 383.722 13.0055 383.421 13.3154L381.268 15.6875H385.861ZM387.263 16.1797C387.263 15.9245 387.349 15.7103 387.522 15.5371C387.696 15.3594 387.93 15.2705 388.227 15.2705C388.527 15.2705 388.762 15.3594 388.931 15.5371C389.104 15.7103 389.19 15.9245 389.19 16.1797C389.19 16.4349 389.104 16.6491 388.931 16.8223C388.762 16.9954 388.527 17.082 388.227 17.082C387.93 17.082 387.696 16.9954 387.522 16.8223C387.349 16.6491 387.263 16.4349 387.263 16.1797ZM387.27 10.3555C387.27 10.1003 387.356 9.88607 387.529 9.71289C387.702 9.53516 387.937 9.44629 388.233 9.44629C388.534 9.44629 388.769 9.53516 388.938 9.71289C389.111 9.88607 389.197 10.1003 389.197 10.3555C389.197 10.6107 389.111 10.8249 388.938 10.998C388.769 11.1712 388.534 11.2578 388.233 11.2578C387.937 11.2578 387.702 11.1712 387.529 10.998C387.356 10.8249 387.27 10.6107 387.27 10.3555ZM392.772 11.2783H393.757C394.14 11.2783 394.456 11.2122 394.707 11.0801C394.962 10.9479 395.151 10.7656 395.274 10.5332C395.397 10.3008 395.459 10.0342 395.459 9.7334C395.459 9.41895 395.402 9.15007 395.288 8.92676C395.179 8.69889 395.01 8.52344 394.782 8.40039C394.559 8.27734 394.274 8.21582 393.928 8.21582C393.636 8.21582 393.372 8.27507 393.135 8.39355C392.902 8.50749 392.718 8.67155 392.581 8.88574C392.444 9.09538 392.376 9.34603 392.376 9.6377H390.722C390.722 9.10905 390.861 8.63965 391.139 8.22949C391.417 7.81934 391.795 7.49805 392.273 7.26562C392.757 7.02865 393.299 6.91016 393.9 6.91016C394.543 6.91016 395.104 7.01725 395.582 7.23145C396.065 7.44108 396.441 7.75553 396.71 8.1748C396.979 8.59408 397.113 9.11361 397.113 9.7334C397.113 10.016 397.047 10.3031 396.915 10.5947C396.783 10.8864 396.587 11.153 396.327 11.3945C396.067 11.6315 395.744 11.8252 395.356 11.9756C394.969 12.1214 394.52 12.1943 394.01 12.1943H392.772V11.2783ZM392.772 12.5635V11.6611H394.01C394.593 11.6611 395.09 11.7295 395.5 11.8662C395.915 12.0029 396.252 12.1921 396.512 12.4336C396.771 12.6706 396.961 12.9417 397.079 13.2471C397.202 13.5524 397.264 13.876 397.264 14.2178C397.264 14.6826 397.179 15.0973 397.011 15.4619C396.847 15.8219 396.612 16.1273 396.307 16.3779C396.001 16.6286 395.644 16.8177 395.233 16.9453C394.828 17.0729 394.386 17.1367 393.907 17.1367C393.479 17.1367 393.069 17.0775 392.677 16.959C392.285 16.8405 391.934 16.665 391.624 16.4326C391.314 16.1956 391.068 15.9017 390.886 15.5508C390.708 15.1953 390.619 14.7852 390.619 14.3203H392.267C392.267 14.6165 392.335 14.8786 392.472 15.1064C392.613 15.3298 392.809 15.5052 393.06 15.6328C393.315 15.7604 393.606 15.8242 393.935 15.8242C394.281 15.8242 394.579 15.7627 394.83 15.6396C395.081 15.5166 395.272 15.3343 395.404 15.0928C395.541 14.8512 395.609 14.5596 395.609 14.2178C395.609 13.8304 395.534 13.516 395.384 13.2744C395.233 13.0329 395.019 12.8551 394.741 12.7412C394.463 12.6227 394.135 12.5635 393.757 12.5635H392.772ZM405.282 11.1895V12.8164C405.282 13.5957 405.205 14.2611 405.05 14.8125C404.899 15.3594 404.681 15.8037 404.394 16.1455C404.106 16.4873 403.762 16.738 403.361 16.8975C402.965 17.057 402.521 17.1367 402.028 17.1367C401.636 17.1367 401.272 17.0866 400.935 16.9863C400.602 16.8861 400.301 16.7288 400.032 16.5146C399.763 16.3005 399.533 16.0247 399.342 15.6875C399.155 15.3457 399.009 14.9378 398.904 14.4639C398.804 13.9899 398.754 13.4408 398.754 12.8164V11.1895C398.754 10.4056 398.831 9.74479 398.986 9.20703C399.141 8.66471 399.362 8.22493 399.649 7.8877C399.937 7.5459 400.278 7.29753 400.675 7.14258C401.076 6.98763 401.522 6.91016 402.015 6.91016C402.411 6.91016 402.776 6.96029 403.108 7.06055C403.446 7.15625 403.746 7.30892 404.011 7.51855C404.28 7.72819 404.507 8.00163 404.694 8.33887C404.886 8.67155 405.032 9.07487 405.132 9.54883C405.232 10.0182 405.282 10.5651 405.282 11.1895ZM403.635 13.0488V10.9434C403.635 10.5469 403.612 10.1982 403.566 9.89746C403.521 9.59212 403.452 9.33464 403.361 9.125C403.275 8.91081 403.165 8.73763 403.033 8.60547C402.901 8.46875 402.751 8.37077 402.582 8.31152C402.413 8.24772 402.224 8.21582 402.015 8.21582C401.759 8.21582 401.532 8.26595 401.331 8.36621C401.131 8.46191 400.962 8.61686 400.825 8.83105C400.688 9.04525 400.584 9.3278 400.511 9.67871C400.442 10.0251 400.408 10.4466 400.408 10.9434V13.0488C400.408 13.4499 400.431 13.8031 400.477 14.1084C400.522 14.4137 400.59 14.6758 400.682 14.8945C400.773 15.1087 400.882 15.2865 401.01 15.4277C401.142 15.5645 401.292 15.6647 401.461 15.7285C401.634 15.7923 401.823 15.8242 402.028 15.8242C402.288 15.8242 402.518 15.7741 402.719 15.6738C402.919 15.5736 403.088 15.4141 403.225 15.1953C403.361 14.972 403.464 14.6826 403.532 14.3271C403.601 13.9717 403.635 13.5456 403.635 13.0488Z" fill="black" fill-opacity="0.7"/>
<path d="M375.73 7.0127V17H374.083V8.96777L371.643 9.79492V8.43457L375.532 7.0127H375.73ZM385.861 15.6875V17H379.189V15.8721L382.43 12.3379C382.785 11.9368 383.065 11.5905 383.271 11.2988C383.476 11.0072 383.619 10.7451 383.701 10.5127C383.788 10.2757 383.831 10.0456 383.831 9.82227C383.831 9.50781 383.772 9.2321 383.653 8.99512C383.539 8.75358 383.371 8.56445 383.147 8.42773C382.924 8.28646 382.653 8.21582 382.334 8.21582C381.965 8.21582 381.655 8.29557 381.404 8.45508C381.154 8.61458 380.965 8.83561 380.837 9.11816C380.709 9.39616 380.646 9.71517 380.646 10.0752H378.998C378.998 9.49642 379.13 8.96777 379.395 8.48926C379.659 8.00618 380.042 7.62337 380.543 7.34082C381.044 7.05371 381.648 6.91016 382.354 6.91016C383.02 6.91016 383.585 7.02181 384.05 7.24512C384.515 7.46842 384.868 7.78516 385.109 8.19531C385.355 8.60547 385.479 9.09082 385.479 9.65137C385.479 9.96126 385.428 10.2689 385.328 10.5742C385.228 10.8796 385.084 11.1849 384.897 11.4902C384.715 11.791 384.499 12.0941 384.248 12.3994C383.997 12.7002 383.722 13.0055 383.421 13.3154L381.268 15.6875H385.861ZM387.263 16.1797C387.263 15.9245 387.349 15.7103 387.522 15.5371C387.696 15.3594 387.93 15.2705 388.227 15.2705C388.527 15.2705 388.762 15.3594 388.931 15.5371C389.104 15.7103 389.19 15.9245 389.19 16.1797C389.19 16.4349 389.104 16.6491 388.931 16.8223C388.762 16.9954 388.527 17.082 388.227 17.082C387.93 17.082 387.696 16.9954 387.522 16.8223C387.349 16.6491 387.263 16.4349 387.263 16.1797ZM387.27 10.3555C387.27 10.1003 387.356 9.88607 387.529 9.71289C387.702 9.53516 387.937 9.44629 388.233 9.44629C388.534 9.44629 388.769 9.53516 388.938 9.71289C389.111 9.88607 389.197 10.1003 389.197 10.3555C389.197 10.6107 389.111 10.8249 388.938 10.998C388.769 11.1712 388.534 11.2578 388.233 11.2578C387.937 11.2578 387.702 11.1712 387.529 10.998C387.356 10.8249 387.27 10.6107 387.27 10.3555ZM392.772 11.2783H393.757C394.14 11.2783 394.456 11.2122 394.707 11.0801C394.962 10.9479 395.151 10.7656 395.274 10.5332C395.397 10.3008 395.459 10.0342 395.459 9.7334C395.459 9.41895 395.402 9.15007 395.288 8.92676C395.179 8.69889 395.01 8.52344 394.782 8.40039C394.559 8.27734 394.274 8.21582 393.928 8.21582C393.636 8.21582 393.372 8.27507 393.135 8.39355C392.902 8.50749 392.718 8.67155 392.581 8.88574C392.444 9.09538 392.376 9.34603 392.376 9.6377H390.722C390.722 9.10905 390.861 8.63965 391.139 8.22949C391.417 7.81934 391.795 7.49805 392.273 7.26562C392.757 7.02865 393.299 6.91016 393.9 6.91016C394.543 6.91016 395.104 7.01725 395.582 7.23145C396.065 7.44108 396.441 7.75553 396.71 8.1748C396.979 8.59408 397.113 9.11361 397.113 9.7334C397.113 10.016 397.047 10.3031 396.915 10.5947C396.783 10.8864 396.587 11.153 396.327 11.3945C396.067 11.6315 395.744 11.8252 395.356 11.9756C394.969 12.1214 394.52 12.1943 394.01 12.1943H392.772V11.2783ZM392.772 12.5635V11.6611H394.01C394.593 11.6611 395.09 11.7295 395.5 11.8662C395.915 12.0029 396.252 12.1921 396.512 12.4336C396.771 12.6706 396.961 12.9417 397.079 13.2471C397.202 13.5524 397.264 13.876 397.264 14.2178C397.264 14.6826 397.179 15.0973 397.011 15.4619C396.847 15.8219 396.612 16.1273 396.307 16.3779C396.001 16.6286 395.644 16.8177 395.233 16.9453C394.828 17.0729 394.386 17.1367 393.907 17.1367C393.479 17.1367 393.069 17.0775 392.677 16.959C392.285 16.8405 391.934 16.665 391.624 16.4326C391.314 16.1956 391.068 15.9017 390.886 15.5508C390.708 15.1953 390.619 14.7852 390.619 14.3203H392.267C392.267 14.6165 392.335 14.8786 392.472 15.1064C392.613 15.3298 392.809 15.5052 393.06 15.6328C393.315 15.7604 393.606 15.8242 393.935 15.8242C394.281 15.8242 394.579 15.7627 394.83 15.6396C395.081 15.5166 395.272 15.3343 395.404 15.0928C395.541 14.8512 395.609 14.5596 395.609 14.2178C395.609 13.8304 395.534 13.516 395.384 13.2744C395.233 13.0329 395.019 12.8551 394.741 12.7412C394.463 12.6227 394.135 12.5635 393.757 12.5635H392.772ZM405.282 11.1895V12.8164C405.282 13.5957 405.205 14.2611 405.05 14.8125C404.899 15.3594 404.681 15.8037 404.394 16.1455C404.106 16.4873 403.762 16.738 403.361 16.8975C402.965 17.057 402.521 17.1367 402.028 17.1367C401.636 17.1367 401.272 17.0866 400.935 16.9863C400.602 16.8861 400.301 16.7288 400.032 16.5146C399.763 16.3005 399.533 16.0247 399.342 15.6875C399.155 15.3457 399.009 14.9378 398.904 14.4639C398.804 13.9899 398.754 13.4408 398.754 12.8164V11.1895C398.754 10.4056 398.831 9.74479 398.986 9.20703C399.141 8.66471 399.362 8.22493 399.649 7.8877C399.937 7.5459 400.278 7.29753 400.675 7.14258C401.076 6.98763 401.522 6.91016 402.015 6.91016C402.411 6.91016 402.776 6.96029 403.108 7.06055C403.446 7.15625 403.746 7.30892 404.011 7.51855C404.28 7.72819 404.507 8.00163 404.694 8.33887C404.886 8.67155 405.032 9.07487 405.132 9.54883C405.232 10.0182 405.282 10.5651 405.282 11.1895ZM403.635 13.0488V10.9434C403.635 10.5469 403.612 10.1982 403.566 9.89746C403.521 9.59212 403.452 9.33464 403.361 9.125C403.275 8.91081 403.165 8.73763 403.033 8.60547C402.901 8.46875 402.751 8.37077 402.582 8.31152C402.413 8.24772 402.224 8.21582 402.015 8.21582C401.759 8.21582 401.532 8.26595 401.331 8.36621C401.131 8.46191 400.962 8.61686 400.825 8.83105C400.688 9.04525 400.584 9.3278 400.511 9.67871C400.442 10.0251 400.408 10.4466 400.408 10.9434V13.0488C400.408 13.4499 400.431 13.8031 400.477 14.1084C400.522 14.4137 400.59 14.6758 400.682 14.8945C400.773 15.1087 400.882 15.2865 401.01 15.4277C401.142 15.5645 401.292 15.6647 401.461 15.7285C401.634 15.7923 401.823 15.8242 402.028 15.8242C402.288 15.8242 402.518 15.7741 402.719 15.6738C402.919 15.5736 403.088 15.4141 403.225 15.1953C403.361 14.972 403.464 14.6826 403.532 14.3271C403.601 13.9717 403.635 13.5456 403.635 13.0488Z" fill="black" fill-opacity="0.7"/>
<path d="M375.73 7.0127V17H374.083V8.96777L371.643 9.79492V8.43457L375.532 7.0127H375.73ZM385.861 15.6875V17H379.189V15.8721L382.43 12.3379C382.785 11.9368 383.065 11.5905 383.271 11.2988C383.476 11.0072 383.619 10.7451 383.701 10.5127C383.788 10.2757 383.831 10.0456 383.831 9.82227C383.831 9.50781 383.772 9.2321 383.653 8.99512C383.539 8.75358 383.371 8.56445 383.147 8.42773C382.924 8.28646 382.653 8.21582 382.334 8.21582C381.965 8.21582 381.655 8.29557 381.404 8.45508C381.154 8.61458 380.965 8.83561 380.837 9.11816C380.709 9.39616 380.646 9.71517 380.646 10.0752H378.998C378.998 9.49642 379.13 8.96777 379.395 8.48926C379.659 8.00618 380.042 7.62337 380.543 7.34082C381.044 7.05371 381.648 6.91016 382.354 6.91016C383.02 6.91016 383.585 7.02181 384.05 7.24512C384.515 7.46842 384.868 7.78516 385.109 8.19531C385.355 8.60547 385.479 9.09082 385.479 9.65137C385.479 9.96126 385.428 10.2689 385.328 10.5742C385.228 10.8796 385.084 11.1849 384.897 11.4902C384.715 11.791 384.499 12.0941 384.248 12.3994C383.997 12.7002 383.722 13.0055 383.421 13.3154L381.268 15.6875H385.861ZM387.263 16.1797C387.263 15.9245 387.349 15.7103 387.522 15.5371C387.696 15.3594 387.93 15.2705 388.227 15.2705C388.527 15.2705 388.762 15.3594 388.931 15.5371C389.104 15.7103 389.19 15.9245 389.19 16.1797C389.19 16.4349 389.104 16.6491 388.931 16.8223C388.762 16.9954 388.527 17.082 388.227 17.082C387.93 17.082 387.696 16.9954 387.522 16.8223C387.349 16.6491 387.263 16.4349 387.263 16.1797ZM387.27 10.3555C387.27 10.1003 387.356 9.88607 387.529 9.71289C387.702 9.53516 387.937 9.44629 388.233 9.44629C388.534 9.44629 388.769 9.53516 388.938 9.71289C389.111 9.88607 389.197 10.1003 389.197 10.3555C389.197 10.6107 389.111 10.8249 388.938 10.998C388.769 11.1712 388.534 11.2578 388.233 11.2578C387.937 11.2578 387.702 11.1712 387.529 10.998C387.356 10.8249 387.27 10.6107 387.27 10.3555ZM392.772 11.2783H393.757C394.14 11.2783 394.456 11.2122 394.707 11.0801C394.962 10.9479 395.151 10.7656 395.274 10.5332C395.397 10.3008 395.459 10.0342 395.459 9.7334C395.459 9.41895 395.402 9.15007 395.288 8.92676C395.179 8.69889 395.01 8.52344 394.782 8.40039C394.559 8.27734 394.274 8.21582 393.928 8.21582C393.636 8.21582 393.372 8.27507 393.135 8.39355C392.902 8.50749 392.718 8.67155 392.581 8.88574C392.444 9.09538 392.376 9.34603 392.376 9.6377H390.722C390.722 9.10905 390.861 8.63965 391.139 8.22949C391.417 7.81934 391.795 7.49805 392.273 7.26562C392.757 7.02865 393.299 6.91016 393.9 6.91016C394.543 6.91016 395.104 7.01725 395.582 7.23145C396.065 7.44108 396.441 7.75553 396.71 8.1748C396.979 8.59408 397.113 9.11361 397.113 9.7334C397.113 10.016 397.047 10.3031 396.915 10.5947C396.783 10.8864 396.587 11.153 396.327 11.3945C396.067 11.6315 395.744 11.8252 395.356 11.9756C394.969 12.1214 394.52 12.1943 394.01 12.1943H392.772V11.2783ZM392.772 12.5635V11.6611H394.01C394.593 11.6611 395.09 11.7295 395.5 11.8662C395.915 12.0029 396.252 12.1921 396.512 12.4336C396.771 12.6706 396.961 12.9417 397.079 13.2471C397.202 13.5524 397.264 13.876 397.264 14.2178C397.264 14.6826 397.179 15.0973 397.011 15.4619C396.847 15.8219 396.612 16.1273 396.307 16.3779C396.001 16.6286 395.644 16.8177 395.233 16.9453C394.828 17.0729 394.386 17.1367 393.907 17.1367C393.479 17.1367 393.069 17.0775 392.677 16.959C392.285 16.8405 391.934 16.665 391.624 16.4326C391.314 16.1956 391.068 15.9017 390.886 15.5508C390.708 15.1953 390.619 14.7852 390.619 14.3203H392.267C392.267 14.6165 392.335 14.8786 392.472 15.1064C392.613 15.3298 392.809 15.5052 393.06 15.6328C393.315 15.7604 393.606 15.8242 393.935 15.8242C394.281 15.8242 394.579 15.7627 394.83 15.6396C395.081 15.5166 395.272 15.3343 395.404 15.0928C395.541 14.8512 395.609 14.5596 395.609 14.2178C395.609 13.8304 395.534 13.516 395.384 13.2744C395.233 13.0329 395.019 12.8551 394.741 12.7412C394.463 12.6227 394.135 12.5635 393.757 12.5635H392.772ZM405.282 11.1895V12.8164C405.282 13.5957 405.205 14.2611 405.05 14.8125C404.899 15.3594 404.681 15.8037 404.394 16.1455C404.106 16.4873 403.762 16.738 403.361 16.8975C402.965 17.057 402.521 17.1367 402.028 17.1367C401.636 17.1367 401.272 17.0866 400.935 16.9863C400.602 16.8861 400.301 16.7288 400.032 16.5146C399.763 16.3005 399.533 16.0247 399.342 15.6875C399.155 15.3457 399.009 14.9378 398.904 14.4639C398.804 13.9899 398.754 13.4408 398.754 12.8164V11.1895C398.754 10.4056 398.831 9.74479 398.986 9.20703C399.141 8.66471 399.362 8.22493 399.649 7.8877C399.937 7.5459 400.278 7.29753 400.675 7.14258C401.076 6.98763 401.522 6.91016 402.015 6.91016C402.411 6.91016 402.776 6.96029 403.108 7.06055C403.446 7.15625 403.746 7.30892 404.011 7.51855C404.28 7.72819 404.507 8.00163 404.694 8.33887C404.886 8.67155 405.032 9.07487 405.132 9.54883C405.232 10.0182 405.282 10.5651 405.282 11.1895ZM403.635 13.0488V10.9434C403.635 10.5469 403.612 10.1982 403.566 9.89746C403.521 9.59212 403.452 9.33464 403.361 9.125C403.275 8.91081 403.165 8.73763 403.033 8.60547C402.901 8.46875 402.751 8.37077 402.582 8.31152C402.413 8.24772 402.224 8.21582 402.015 8.21582C401.759 8.21582 401.532 8.26595 401.331 8.36621C401.131 8.46191 400.962 8.61686 400.825 8.83105C400.688 9.04525 400.584 9.3278 400.511 9.67871C400.442 10.0251 400.408 10.4466 400.408 10.9434V13.0488C400.408 13.4499 400.431 13.8031 400.477 14.1084C400.522 14.4137 400.59 14.6758 400.682 14.8945C400.773 15.1087 400.882 15.2865 401.01 15.4277C401.142 15.5645 401.292 15.6647 401.461 15.7285C401.634 15.7923 401.823 15.8242 402.028 15.8242C402.288 15.8242 402.518 15.7741 402.719 15.6738C402.919 15.5736 403.088 15.4141 403.225 15.1953C403.361 14.972 403.464 14.6826 403.532 14.3271C403.601 13.9717 403.635 13.5456 403.635 13.0488Z" fill="black" fill-opacity="0.7"/>
<path d="M375.73 7.0127V17H374.083V8.96777L371.643 9.79492V8.43457L375.532 7.0127H375.73ZM385.861 15.6875V17H379.189V15.8721L382.43 12.3379C382.785 11.9368 383.065 11.5905 383.271 11.2988C383.476 11.0072 383.619 10.7451 383.701 10.5127C383.788 10.2757 383.831 10.0456 383.831 9.82227C383.831 9.50781 383.772 9.2321 383.653 8.99512C383.539 8.75358 383.371 8.56445 383.147 8.42773C382.924 8.28646 382.653 8.21582 382.334 8.21582C381.965 8.21582 381.655 8.29557 381.404 8.45508C381.154 8.61458 380.965 8.83561 380.837 9.11816C380.709 9.39616 380.646 9.71517 380.646 10.0752H378.998C378.998 9.49642 379.13 8.96777 379.395 8.48926C379.659 8.00618 380.042 7.62337 380.543 7.34082C381.044 7.05371 381.648 6.91016 382.354 6.91016C383.02 6.91016 383.585 7.02181 384.05 7.24512C384.515 7.46842 384.868 7.78516 385.109 8.19531C385.355 8.60547 385.479 9.09082 385.479 9.65137C385.479 9.96126 385.428 10.2689 385.328 10.5742C385.228 10.8796 385.084 11.1849 384.897 11.4902C384.715 11.791 384.499 12.0941 384.248 12.3994C383.997 12.7002 383.722 13.0055 383.421 13.3154L381.268 15.6875H385.861ZM387.263 16.1797C387.263 15.9245 387.349 15.7103 387.522 15.5371C387.696 15.3594 387.93 15.2705 388.227 15.2705C388.527 15.2705 388.762 15.3594 388.931 15.5371C389.104 15.7103 389.19 15.9245 389.19 16.1797C389.19 16.4349 389.104 16.6491 388.931 16.8223C388.762 16.9954 388.527 17.082 388.227 17.082C387.93 17.082 387.696 16.9954 387.522 16.8223C387.349 16.6491 387.263 16.4349 387.263 16.1797ZM387.27 10.3555C387.27 10.1003 387.356 9.88607 387.529 9.71289C387.702 9.53516 387.937 9.44629 388.233 9.44629C388.534 9.44629 388.769 9.53516 388.938 9.71289C389.111 9.88607 389.197 10.1003 389.197 10.3555C389.197 10.6107 389.111 10.8249 388.938 10.998C388.769 11.1712 388.534 11.2578 388.233 11.2578C387.937 11.2578 387.702 11.1712 387.529 10.998C387.356 10.8249 387.27 10.6107 387.27 10.3555ZM392.772 11.2783H393.757C394.14 11.2783 394.456 11.2122 394.707 11.0801C394.962 10.9479 395.151 10.7656 395.274 10.5332C395.397 10.3008 395.459 10.0342 395.459 9.7334C395.459 9.41895 395.402 9.15007 395.288 8.92676C395.179 8.69889 395.01 8.52344 394.782 8.40039C394.559 8.27734 394.274 8.21582 393.928 8.21582C393.636 8.21582 393.372 8.27507 393.135 8.39355C392.902 8.50749 392.718 8.67155 392.581 8.88574C392.444 9.09538 392.376 9.34603 392.376 9.6377H390.722C390.722 9.10905 390.861 8.63965 391.139 8.22949C391.417 7.81934 391.795 7.49805 392.273 7.26562C392.757 7.02865 393.299 6.91016 393.9 6.91016C394.543 6.91016 395.104 7.01725 395.582 7.23145C396.065 7.44108 396.441 7.75553 396.71 8.1748C396.979 8.59408 397.113 9.11361 397.113 9.7334C397.113 10.016 397.047 10.3031 396.915 10.5947C396.783 10.8864 396.587 11.153 396.327 11.3945C396.067 11.6315 395.744 11.8252 395.356 11.9756C394.969 12.1214 394.52 12.1943 394.01 12.1943H392.772V11.2783ZM392.772 12.5635V11.6611H394.01C394.593 11.6611 395.09 11.7295 395.5 11.8662C395.915 12.0029 396.252 12.1921 396.512 12.4336C396.771 12.6706 396.961 12.9417 397.079 13.2471C397.202 13.5524 397.264 13.876 397.264 14.2178C397.264 14.6826 397.179 15.0973 397.011 15.4619C396.847 15.8219 396.612 16.1273 396.307 16.3779C396.001 16.6286 395.644 16.8177 395.233 16.9453C394.828 17.0729 394.386 17.1367 393.907 17.1367C393.479 17.1367 393.069 17.0775 392.677 16.959C392.285 16.8405 391.934 16.665 391.624 16.4326C391.314 16.1956 391.068 15.9017 390.886 15.5508C390.708 15.1953 390.619 14.7852 390.619 14.3203H392.267C392.267 14.6165 392.335 14.8786 392.472 15.1064C392.613 15.3298 392.809 15.5052 393.06 15.6328C393.315 15.7604 393.606 15.8242 393.935 15.8242C394.281 15.8242 394.579 15.7627 394.83 15.6396C395.081 15.5166 395.272 15.3343 395.404 15.0928C395.541 14.8512 395.609 14.5596 395.609 14.2178C395.609 13.8304 395.534 13.516 395.384 13.2744C395.233 13.0329 395.019 12.8551 394.741 12.7412C394.463 12.6227 394.135 12.5635 393.757 12.5635H392.772ZM405.282 11.1895V12.8164C405.282 13.5957 405.205 14.2611 405.05 14.8125C404.899 15.3594 404.681 15.8037 404.394 16.1455C404.106 16.4873 403.762 16.738 403.361 16.8975C402.965 17.057 402.521 17.1367 402.028 17.1367C401.636 17.1367 401.272 17.0866 400.935 16.9863C400.602 16.8861 400.301 16.7288 400.032 16.5146C399.763 16.3005 399.533 16.0247 399.342 15.6875C399.155 15.3457 399.009 14.9378 398.904 14.4639C398.804 13.9899 398.754 13.4408 398.754 12.8164V11.1895C398.754 10.4056 398.831 9.74479 398.986 9.20703C399.141 8.66471 399.362 8.22493 399.649 7.8877C399.937 7.5459 400.278 7.29753 400.675 7.14258C401.076 6.98763 401.522 6.91016 402.015 6.91016C402.411 6.91016 402.776 6.96029 403.108 7.06055C403.446 7.15625 403.746 7.30892 404.011 7.51855C404.28 7.72819 404.507 8.00163 404.694 8.33887C404.886 8.67155 405.032 9.07487 405.132 9.54883C405.232 10.0182 405.282 10.5651 405.282 11.1895ZM403.635 13.0488V10.9434C403.635 10.5469 403.612 10.1982 403.566 9.89746C403.521 9.59212 403.452 9.33464 403.361 9.125C403.275 8.91081 403.165 8.73763 403.033 8.60547C402.901 8.46875 402.751 8.37077 402.582 8.31152C402.413 8.24772 402.224 8.21582 402.015 8.21582C401.759 8.21582 401.532 8.26595 401.331 8.36621C401.131 8.46191 400.962 8.61686 400.825 8.83105C400.688 9.04525 400.584 9.3278 400.511 9.67871C400.442 10.0251 400.408 10.4466 400.408 10.9434V13.0488C400.408 13.4499 400.431 13.8031 400.477 14.1084C400.522 14.4137 400.59 14.6758 400.682 14.8945C400.773 15.1087 400.882 15.2865 401.01 15.4277C401.142 15.5645 401.292 15.6647 401.461 15.7285C401.634 15.7923 401.823 15.8242 402.028 15.8242C402.288 15.8242 402.518 15.7741 402.719 15.6738C402.919 15.5736 403.088 15.4141 403.225 15.1953C403.361 14.972 403.464 14.6826 403.532 14.3271C403.601 13.9717 403.635 13.5456 403.635 13.0488Z" fill="black" fill-opacity="0.7"/>
<path d="M375.73 7.0127V17H374.083V8.96777L371.643 9.79492V8.43457L375.532 7.0127H375.73ZM385.861 15.6875V17H379.189V15.8721L382.43 12.3379C382.785 11.9368 383.065 11.5905 383.271 11.2988C383.476 11.0072 383.619 10.7451 383.701 10.5127C383.788 10.2757 383.831 10.0456 383.831 9.82227C383.831 9.50781 383.772 9.2321 383.653 8.99512C383.539 8.75358 383.371 8.56445 383.147 8.42773C382.924 8.28646 382.653 8.21582 382.334 8.21582C381.965 8.21582 381.655 8.29557 381.404 8.45508C381.154 8.61458 380.965 8.83561 380.837 9.11816C380.709 9.39616 380.646 9.71517 380.646 10.0752H378.998C378.998 9.49642 379.13 8.96777 379.395 8.48926C379.659 8.00618 380.042 7.62337 380.543 7.34082C381.044 7.05371 381.648 6.91016 382.354 6.91016C383.02 6.91016 383.585 7.02181 384.05 7.24512C384.515 7.46842 384.868 7.78516 385.109 8.19531C385.355 8.60547 385.479 9.09082 385.479 9.65137C385.479 9.96126 385.428 10.2689 385.328 10.5742C385.228 10.8796 385.084 11.1849 384.897 11.4902C384.715 11.791 384.499 12.0941 384.248 12.3994C383.997 12.7002 383.722 13.0055 383.421 13.3154L381.268 15.6875H385.861ZM387.263 16.1797C387.263 15.9245 387.349 15.7103 387.522 15.5371C387.696 15.3594 387.93 15.2705 388.227 15.2705C388.527 15.2705 388.762 15.3594 388.931 15.5371C389.104 15.7103 389.19 15.9245 389.19 16.1797C389.19 16.4349 389.104 16.6491 388.931 16.8223C388.762 16.9954 388.527 17.082 388.227 17.082C387.93 17.082 387.696 16.9954 387.522 16.8223C387.349 16.6491 387.263 16.4349 387.263 16.1797ZM387.27 10.3555C387.27 10.1003 387.356 9.88607 387.529 9.71289C387.702 9.53516 387.937 9.44629 388.233 9.44629C388.534 9.44629 388.769 9.53516 388.938 9.71289C389.111 9.88607 389.197 10.1003 389.197 10.3555C389.197 10.6107 389.111 10.8249 388.938 10.998C388.769 11.1712 388.534 11.2578 388.233 11.2578C387.937 11.2578 387.702 11.1712 387.529 10.998C387.356 10.8249 387.27 10.6107 387.27 10.3555ZM392.772 11.2783H393.757C394.14 11.2783 394.456 11.2122 394.707 11.0801C394.962 10.9479 395.151 10.7656 395.274 10.5332C395.397 10.3008 395.459 10.0342 395.459 9.7334C395.459 9.41895 395.402 9.15007 395.288 8.92676C395.179 8.69889 395.01 8.52344 394.782 8.40039C394.559 8.27734 394.274 8.21582 393.928 8.21582C393.636 8.21582 393.372 8.27507 393.135 8.39355C392.902 8.50749 392.718 8.67155 392.581 8.88574C392.444 9.09538 392.376 9.34603 392.376 9.6377H390.722C390.722 9.10905 390.861 8.63965 391.139 8.22949C391.417 7.81934 391.795 7.49805 392.273 7.26562C392.757 7.02865 393.299 6.91016 393.9 6.91016C394.543 6.91016 395.104 7.01725 395.582 7.23145C396.065 7.44108 396.441 7.75553 396.71 8.1748C396.979 8.59408 397.113 9.11361 397.113 9.7334C397.113 10.016 397.047 10.3031 396.915 10.5947C396.783 10.8864 396.587 11.153 396.327 11.3945C396.067 11.6315 395.744 11.8252 395.356 11.9756C394.969 12.1214 394.52 12.1943 394.01 12.1943H392.772V11.2783ZM392.772 12.5635V11.6611H394.01C394.593 11.6611 395.09 11.7295 395.5 11.8662C395.915 12.0029 396.252 12.1921 396.512 12.4336C396.771 12.6706 396.961 12.9417 397.079 13.2471C397.202 13.5524 397.264 13.876 397.264 14.2178C397.264 14.6826 397.179 15.0973 397.011 15.4619C396.847 15.8219 396.612 16.1273 396.307 16.3779C396.001 16.6286 395.644 16.8177 395.233 16.9453C394.828 17.0729 394.386 17.1367 393.907 17.1367C393.479 17.1367 393.069 17.0775 392.677 16.959C392.285 16.8405 391.934 16.665 391.624 16.4326C391.314 16.1956 391.068 15.9017 390.886 15.5508C390.708 15.1953 390.619 14.7852 390.619 14.3203H392.267C392.267 14.6165 392.335 14.8786 392.472 15.1064C392.613 15.3298 392.809 15.5052 393.06 15.6328C393.315 15.7604 393.606 15.8242 393.935 15.8242C394.281 15.8242 394.579 15.7627 394.83 15.6396C395.081 15.5166 395.272 15.3343 395.404 15.0928C395.541 14.8512 395.609 14.5596 395.609 14.2178C395.609 13.8304 395.534 13.516 395.384 13.2744C395.233 13.0329 395.019 12.8551 394.741 12.7412C394.463 12.6227 394.135 12.5635 393.757 12.5635H392.772ZM405.282 11.1895V12.8164C405.282 13.5957 405.205 14.2611 405.05 14.8125C404.899 15.3594 404.681 15.8037 404.394 16.1455C404.106 16.4873 403.762 16.738 403.361 16.8975C402.965 17.057 402.521 17.1367 402.028 17.1367C401.636 17.1367 401.272 17.0866 400.935 16.9863C400.602 16.8861 400.301 16.7288 400.032 16.5146C399.763 16.3005 399.533 16.0247 399.342 15.6875C399.155 15.3457 399.009 14.9378 398.904 14.4639C398.804 13.9899 398.754 13.4408 398.754 12.8164V11.1895C398.754 10.4056 398.831 9.74479 398.986 9.20703C399.141 8.66471 399.362 8.22493 399.649 7.8877C399.937 7.5459 400.278 7.29753 400.675 7.14258C401.076 6.98763 401.522 6.91016 402.015 6.91016C402.411 6.91016 402.776 6.96029 403.108 7.06055C403.446 7.15625 403.746 7.30892 404.011 7.51855C404.28 7.72819 404.507 8.00163 404.694 8.33887C404.886 8.67155 405.032 9.07487 405.132 9.54883C405.232 10.0182 405.282 10.5651 405.282 11.1895ZM403.635 13.0488V10.9434C403.635 10.5469 403.612 10.1982 403.566 9.89746C403.521 9.59212 403.452 9.33464 403.361 9.125C403.275 8.91081 403.165 8.73763 403.033 8.60547C402.901 8.46875 402.751 8.37077 402.582 8.31152C402.413 8.24772 402.224 8.21582 402.015 8.21582C401.759 8.21582 401.532 8.26595 401.331 8.36621C401.131 8.46191 400.962 8.61686 400.825 8.83105C400.688 9.04525 400.584 9.3278 400.511 9.67871C400.442 10.0251 400.408 10.4466 400.408 10.9434V13.0488C400.408 13.4499 400.431 13.8031 400.477 14.1084C400.522 14.4137 400.59 14.6758 400.682 14.8945C400.773 15.1087 400.882 15.2865 401.01 15.4277C401.142 15.5645 401.292 15.6647 401.461 15.7285C401.634 15.7923 401.823 15.8242 402.028 15.8242C402.288 15.8242 402.518 15.7741 402.719 15.6738C402.919 15.5736 403.088 15.4141 403.225 15.1953C403.361 14.972 403.464 14.6826 403.532 14.3271C403.601 13.9717 403.635 13.5456 403.635 13.0488Z" fill="black" fill-opacity="0.7"/>
<path fill-rule="evenodd" clip-rule="evenodd" d="M360 5.875V5L357 5V5.875H354V19H363V5.875H360Z" fill="black" fill-opacity="0.7"/>
<path fill-rule="evenodd" clip-rule="evenodd" d="M331 19H345V5L331 19Z" fill="black" fill-opacity="0.7"/>
<path d="M310.978 8.01593L320 19L329.023 8.01593C326.512 6.12256 323.387 5 320 5C316.613 5 313.488 6.12256 310.978 8.01593Z" fill="black" fill-opacity="0.7"/>
</svg>
